<?xml version="1.0" encoding="UTF-8"?>
<svg xmlns="http://www.w3.org/2000/svg"
     viewBox="-8429.75 -13072.75 17153.5 19856.5"
     width="1715" height="1986">
  <!--
    Track map — 3 sectors
    Circuit key: 10
    Session: 11230
    Drivers used: 1
    Track width: 350
    Data bounds: minX=-7209 minY=-11852 maxX=7503 maxY=5563
  -->
  <path
    id="sector1"
    d="M-1082,1441 L-1303,1231 L-1333,1203 L-1504,1040 L-1618,932 L-1773,784 L-1899,665 L-2079,493 L-2211,368 L-2321,263 L-2445,145 L-2655,-54 L-2767,-160 L-2959,-342 L-3159,-530 L-3324,-687 L-3403,-768 L-3481,-858 L-3567,-975 L-3616,-1059 L-3660,-1181 L-3670,-1251 L-3671,-1315 L-3657,-1433 L-3639,-1520 L-3617,-1612 L-3605,-1659 L-3571,-1799 L-3557,-1882 L-3551,-1966 L-3557,-2125 L-3567,-2207 L-3608,-2396 L-3668,-2551 L-3787,-2746 L-4012,-3006 L-4123,-3109 L-4283,-3244 L-4395,-3341 L-4550,-3480 L-4784,-3701 L-4923,-3837 L-5009,-3922 L-5132,-4048 L-5238,-4159 L-5392,-4324 L-5402,-4336 L-5502,-4446 L-5607,-4564 L-5756,-4738 L-5836,-4834 L-6004,-5042 L-6210,-5311 L-6331,-5475 L-6411,-5587 L-6533,-5761 L-6621,-5888 L-6785,-6135 L-6865,-6256 L-6989,-6445 L-7056,-6550 L-7117,-6655 L-7150,-6720 L-7173,-6775 L-7191,-6831 L-7209,-6939 L-7209,-7016 L-7192,-7107 L-7155,-7187 L-7146,-7199 L-7073,-7264 L-7031,-7286 L-6964,-7307 L-6865,-7325 L-6694,-7349 L-6508,-7368 L-6406,-7380 L-6331,-7393 L-6211,-7428 L-6150,-7453 L-6090,-7486 L-6040,-7519 L-5934,-7621 L-5847,-7783 L-5823,-7874 L-5812,-7966 L-5810,-8054 L-5817,-8157 L-5827,-8244 L-5836,-8313 L-5864,-8508 L-5878,-8595 L-5912,-8801 L-5925,-8887 L-5940,-9028 L-5947,-9193 L-5895,-9602 L-5846,-9737 L-5781,-9860 L-5664,-10012 L-5594,-10084 L-5389,-10258 L-5328,-10306 L-5042,-10514 L-4908,-10603 L-4793,-10675 L-4705,-10726 L-4390,-10887 L-4184,-10980 L-4053,-11037 L-3797,-11149 L-3538,-11262 L-3289,-11375 L-3263,-11387"
    fill="none"
    stroke="#555555"
    stroke-width="350"
    stroke-linecap="butt"
    stroke-linejoin="round"
    opacity="0.85"
  />
  <!-- Sector 1: 114 points -->
  <path
    id="sector2"
    d="M-3263,-11387 L-3059,-11485 L-2961,-11536 L-2816,-11618 L-2696,-11693 L-2666,-11712 L-2521,-11798 L-2377,-11847 L-2263,-11852 L-2036,-11784 L-1939,-11723 L-1765,-11594 L-1598,-11496 L-1430,-11433 L-1328,-11405 L-1076,-11349 L-1036,-11341 L-899,-11315 L-564,-11243 L-431,-11204 L-327,-11170 L-134,-11092 L50,-10992 L198,-10887 L302,-10797 L357,-10742 L514,-10561 L589,-10461 L712,-10269 L861,-9963 L910,-9835 L962,-9675 L1005,-9518 L1083,-9169 L1112,-9024 L1144,-8829 L1169,-8482 L1167,-8339 L1142,-7959 L1112,-7621 L1076,-7406 L981,-7111 L913,-6925 L849,-6739 L801,-6592 L752,-6445 L701,-6290 L629,-6088 L549,-5898 L472,-5733 L382,-5522 L333,-5360 L303,-5225 L269,-4987 L259,-4799 L271,-4461 L281,-4341 L327,-3970 L365,-3773 L428,-3538 L532,-3245 L664,-2947 L780,-2718 L852,-2589 L965,-2409 L1151,-2161 L1183,-2123 L1411,-1878 L1664,-1635 L1856,-1463"
    fill="none"
    stroke="#555555"
    stroke-width="350"
    stroke-linecap="butt"
    stroke-linejoin="round"
    opacity="0.85"
  />
  <!-- Sector 2: 70 points -->
  <path
    id="sector3"
    d="M1856,-1463 L1995,-1344 L2140,-1225 L2346,-1065 L2450,-990 L2596,-897 L2716,-839 L2873,-800 L3040,-798 L3233,-821 L3330,-834 L3450,-850 L3546,-860 L3692,-870 L3918,-863 L4141,-807 L4254,-747 L4374,-661 L4470,-582 L4566,-500 L4687,-396 L4791,-307 L4893,-223 L5017,-120 L5421,222 L5694,455 L5823,573 L5958,709 L6038,796 L6128,905 L6256,1081 L6451,1404 L6546,1594 L6593,1699 L6670,1890 L6743,2087 L6808,2268 L6866,2435 L6939,2654 L7004,2853 L7070,3058 L7161,3339 L7207,3482 L7307,3793 L7383,4056 L7414,4187 L7452,4393 L7471,4489 L7489,4583 L7496,4636 L7503,4720 L7502,4772 L7500,4793 L7483,4874 L7435,4958 L7383,5001 L7311,5036 L7235,5064 L7114,5102 L7063,5117 L6946,5150 L6875,5170 L6769,5198 L6686,5220 L6550,5253 L6418,5284 L6239,5326 L6153,5348 L5992,5391 L5845,5429 L5696,5466 L5553,5510 L5413,5543 L5224,5563 L5031,5542 L4928,5505 L4893,5487 L4803,5429 L4691,5334 L4552,5171 L4449,5020 L4354,4851 L4314,4771 L4215,4569 L4174,4485 L4100,4326 L4054,4227 L4009,4130 L3965,4043 L3893,3927 L3792,3776 L3721,3699 L3605,3636 L3521,3631 L3476,3639 L3431,3654 L3385,3678 L3328,3720 L3299,3748 L3263,3788 L3221,3842 L3183,3898 L3152,3949 L3114,4016 L3091,4055 L3016,4165 L2869,4305 L2796,4350 L2696,4401 L2623,4430 L2487,4460 L2415,4463 L2270,4446 L2134,4409 L1976,4342 L1899,4297 L1803,4225 L1680,4119 L1553,4000 L1438,3889 L1415,3867 L1300,3755 L1186,3643 L1001,3461 L879,3342 L713,3179 L527,2997 L478,2949 L247,2723 L146,2624 L-11,2469 L-91,2391 L-218,2267 L-351,2137 L-481,2012 L-675,1828 L-765,1742 L-942,1575 L-1131,1395 L-1242,1290 L-1365,1172 L-1489,1055 L-1625,925 L-1082,1441"
    fill="none"
    stroke="#555555"
    stroke-width="350"
    stroke-linecap="butt"
    stroke-linejoin="round"
    opacity="0.85"
  />
  <!-- Sector 3: 144 points -->
</svg>
