<?xml version="1.0" encoding="UTF-8"?>
<svg xmlns="http://www.w3.org/2000/svg"
     viewBox="-7697.75 -8167.75 14114.5 12764.5"
     width="1411" height="1276">
  <!--
    Track map — 3 sectors
    Circuit key: 49
    Session: 11241
    Drivers used: 1
    Track width: 350
    Data bounds: minX=-6738 minY=-7208 maxX=5457 maxY=3637
  -->
  <path
    id="sector1"
    d="M-1881,1975 L-1881,1975 L-2067,2015 L-2203,2045 L-2311,2069 L-2360,2079 L-2448,2098 L-2555,2122 L-2702,2154 L-2848,2186 L-2956,2209 L-3073,2235 L-3190,2260 L-3366,2299 L-3405,2307 L-3532,2335 L-3640,2359 L-3737,2380 L-3816,2397 L-3943,2425 L-3982,2433 L-4040,2446 L-4148,2469 L-4177,2476 L-4304,2504 L-4382,2521 L-4539,2554 L-4618,2567 L-4687,2573 L-4757,2572 L-4867,2563 L-4936,2550 L-5060,2513 L-5151,2473 L-5271,2400 L-5379,2311 L-5504,2169 L-5571,2057 L-5571,2057 L-5629,1909 L-5663,1722 L-5665,1652 L-5659,1562 L-5645,1474 L-5628,1406 L-5577,1276 L-5562,1250 L-5461,1127 L-5381,1067 L-5347,1047 L-5206,996 L-5127,983 L-5037,981 L-4977,988 L-4910,1005 L-4795,1064 L-4758,1098 L-4716,1154 L-4698,1189 L-4683,1237 L-4676,1286 L-4679,1356 L-4679,1356 L-4712,1471 L-4742,1534 L-4764,1578 L-4804,1680 L-4811,1769 L-4803,1819 L-4792,1857 L-4771,1902 L-4749,1936 L-4701,1987 L-4653,2021 L-4635,2031 L-4570,2055 L-4500,2063 L-4421,2054 L-4339,2020 L-4221,1899 L-4141,1772 L-4048,1541 L-4029,1463 L-4018,1304 L-4027,1215 L-4047,1127 L-4084,1034 L-4144,930 L-4200,860 L-4317,723 L-4408,617 L-4519,487 L-4564,434 L-4667,312 L-4752,213 L-4829,122 L-4966,-37 L-5044,-128 L-5193,-303 L-5329,-463 L-5427,-577 L-5550,-722 L-5686,-882 L-5796,-1011 L-5943,-1188 L-5982,-1246 L-6050,-1379 L-6097,-1512 L-6213,-1863"
    fill="none"
    stroke="#555555"
    stroke-width="350"
    stroke-linecap="butt"
    stroke-linejoin="round"
    opacity="0.85"
  />
  <!-- Sector 1: 109 points -->
  <path
    id="sector2"
    d="M-6213,-1863 L-6350,-2281 L-6385,-2385 L-6426,-2509 L-6485,-2689 L-6548,-2879 L-6576,-2964 L-6601,-3040 L-6610,-3069 L-6664,-3230 L-6682,-3287 L-6705,-3354 L-6726,-3420 L-6738,-3469 L-6735,-3528 L-6726,-3557 L-6707,-3592 L-6650,-3648 L-6595,-3670 L-6526,-3674 L-6487,-3664 L-6417,-3626 L-6291,-3544 L-6234,-3504 L-6139,-3430 L-6086,-3385 L-5845,-3146 L-5781,-3069 L-5641,-2874 L-5614,-2832 L-5528,-2685 L-5470,-2580 L-5377,-2414 L-5285,-2248 L-5202,-2100 L-5095,-1908 L-4993,-1724 L-4890,-1541 L-4861,-1489 L-4788,-1358 L-4637,-1110 L-4548,-1003 L-4392,-862 L-4276,-783 L-4215,-749 L-3887,-631 L-3759,-611 L-3629,-605 L-3499,-611 L-3371,-632 L-3189,-685 L-2973,-790 L-2858,-870 L-2760,-955 L-2629,-1105 L-2522,-1274 L-2381,-1561 L-2308,-1714 L-2277,-1777 L-2243,-1849 L-2173,-1994 L-2092,-2131 L-2030,-2210 L-1935,-2298 L-1819,-2376 L-1739,-2417 L-1625,-2455 L-1428,-2484 L-1318,-2479 L-1249,-2468 L-1134,-2436 L-1050,-2402 L-971,-2359 L-905,-2314 L-829,-2249 L-738,-2143 L-688,-2069 L-621,-1935 L-587,-1862 L-554,-1789 L-521,-1717 L-437,-1535 L-375,-1399 L-314,-1296 L-278,-1261 L-210,-1221 L-153,-1202 L-104,-1195 L-44,-1200 L-25,-1204 L99,-1265 L160,-1331 L210,-1393 L310,-1518 L360,-1580 L417,-1650 L454,-1697 L498,-1752 L595,-1913 L534,-2177 L483,-2263 L311,-2557 L180,-2781 L114,-2893 L83,-2945 L-7,-3100 L-113,-3281 L-214,-3454 L-244,-3506 L-315,-3626 L-457,-3868 L-573,-4066 L-715,-4308 L-826,-4498 L-902,-4627 L-927,-4670"
    fill="none"
    stroke="#555555"
    stroke-width="350"
    stroke-linecap="butt"
    stroke-linejoin="round"
    opacity="0.85"
  />
  <!-- Sector 2: 116 points -->
  <path
    id="sector3"
    d="M-927,-4670 L-1038,-4860 L-1175,-5093 L-1241,-5205 L-1271,-5256 L-1358,-5403 L-1429,-5524 L-1480,-5609 L-1531,-5695 L-1567,-5755 L-1598,-5807 L-1629,-5858 L-1665,-5919 L-1711,-5995 L-1762,-6043 L-1809,-6059 L-1868,-6053 L-1922,-6028 L-2007,-5959 L-2062,-5901 L-2074,-5885 L-2138,-5795 L-2169,-5756 L-2204,-5721 L-2235,-5695 L-2268,-5673 L-2407,-5622 L-2630,-5692 L-2675,-5732 L-2719,-5773 L-2783,-5849 L-2824,-5906 L-2859,-5966 L-2898,-6048 L-2925,-6123 L-2955,-6249 L-2964,-6339 L-2962,-6469 L-2939,-6607 L-2909,-6702 L-2862,-6801 L-2842,-6835 L-2776,-6923 L-2575,-7087 L-2467,-7138 L-2429,-7150 L-2234,-7197 L-2135,-7208 L-1916,-7203 L-1797,-7183 L-1606,-7124 L-1497,-7074 L-1321,-6962 L-1133,-6783 L-1005,-6604 L-854,-6368 L-779,-6250 L-698,-6124 L-536,-5871 L-461,-5753 L-343,-5568 L-300,-5500 L-208,-5357 L-133,-5239 L55,-4944 L249,-4641 L416,-4379 L545,-4177 L637,-4034 L728,-3891 L901,-3621 L992,-3478 L1127,-3267 L1170,-3200 L1347,-2922 L1477,-2719 L1531,-2635 L1741,-2307 L1891,-2071 L1983,-1927 L1983,-1927 L2349,-1354 L2629,-916 L2818,-621 L2995,-343 L3098,-183 L3189,-40 L3324,170 L3416,313 L3502,448 L3604,608 L3696,751 L3836,970 L3933,1122 L4121,1417 L4197,1535 L4369,1804 L4402,1855 L4547,2082 L4693,2310 L4736,2377 L4816,2503 L4956,2723 L4989,2773 L5075,2908 L5129,2992 L5199,3102 L5252,3186 L5285,3237 L5328,3304 L5376,3380 L5398,3414 L5436,3473 L5450,3498 L5457,3547 L5432,3599 L5418,3613 L5402,3625 L5325,3637 L5325,3637 L5250,3609 L5186,3580 L5115,3544 L5055,3508 L5013,3481 L4955,3442 L4892,3392 L4617,3164 L4479,2968 L4415,2879 L4386,2838 L4288,2699 L4218,2601 L4114,2455 L3975,2259 L3825,2047 L3716,1891 L3528,1620 L3392,1422 L3301,1291 L3226,1184 L3186,1127 L3106,1012 L2968,911 L2880,925 L2792,945 L2675,973 L2627,984 L2481,1019 L2344,1051 L2237,1076 L2159,1093 L2052,1117 L1944,1141 L1837,1164 L1690,1196 L1573,1221 L1495,1239 L1378,1264 L1182,1307 L1045,1336 L918,1364 L850,1379 L537,1447 L228,1515 L160,1529 L-1881,1975"
    fill="none"
    stroke="#555555"
    stroke-width="350"
    stroke-linecap="butt"
    stroke-linejoin="round"
    opacity="0.85"
  />
  <!-- Sector 3: 167 points -->
</svg>
