<?xml version="1.0" encoding="UTF-8"?>
<svg xmlns="http://www.w3.org/2000/svg"
     viewBox="-15131.75 -4470.75 22430.5 12815.5"
     width="2243" height="1282">
  <!--
    Track map — 3 sectors
    Circuit key: 46
    Session: 11249
    Drivers used: 1
    Track width: 350
    Data bounds: minX=-13794 minY=-3133 maxX=5961 maxY=7007
  -->
  <path
    id="sector1"
    d="M1459,367 L1556,481 L1697,645 L1789,753 L1872,850 L1966,960 L2050,1059 L2200,1234 L2419,1489 L2507,1592 L2696,1813 L2718,1839 L2910,2064 L3035,2210 L3127,2317 L3357,2586 L3484,2734 L3692,2977 L3834,3145 L3950,3282 L4042,3391 L4226,3607 L4329,3728 L4455,3877 L4547,3985 L4707,4173 L4799,4280 L4913,4414 L5050,4574 L5140,4680 L5308,4879 L5485,5089 L5616,5248 L5700,5353 L5798,5484 L5861,5589 L5923,5747 L5958,5943 L5961,6071 L5946,6194 L5881,6460 L5839,6596 L5753,6764 L5684,6843 L5602,6907 L5503,6958 L5354,6999 L5204,7007 L5108,6997 L5048,6984 L4940,6943 L4837,6881 L4751,6804 L4618,6631 L4491,6427 L4400,6268 L4330,6144 L4270,6037 L4169,5864 L4114,5779 L4032,5663 L3875,5471 L3722,5330 L3680,5300 L3500,5203 L3304,5153 L3211,5142 L2937,5122 L2744,5077 L2609,5010 L2480,4912 L2369,4786 L2283,4614 L2265,4559 L2232,4445 L2193,4310 L2164,4209 L2128,4083 L2094,3968 L2037,3838 L1934,3701 L1750,3547 L1650,3493 L1436,3426 L1263,3407 L1134,3400 L1006,3393 L799,3368 L683,3337 L574,3293 L380,3170 L333,3131 L215,3010 L179,2965 L122,2876 L70,2764 L44,2671 L33,2583 L32,2543 L45,2433 L97,2269 L170,2093 L234,1932 L282,1813 L362,1579 L377,1488 L359,1268 L295,1112 L216,991 L127,892 L61,837 L-147,718 L-242,674 L-373,614 L-544,542 L-797,466 L-946,437 L-1102,413 L-1392,398 L-1718,416 L-2023,493 L-2152,543 L-2292,605 L-2495,714 L-2637,804 L-2746,888 L-2922,1059 L-3058,1229 L-3227,1457 L-3311,1568 L-3403,1690"
    fill="none"
    stroke="#555555"
    stroke-width="350"
    stroke-linecap="butt"
    stroke-linejoin="round"
    opacity="0.85"
  />
  <!-- Sector 1: 131 points -->
  <path
    id="sector2"
    d="M-3403,1690 L-3543,1872 L-3601,1943 L-3708,2071 L-3903,2296 L-4021,2382 L-4133,2421 L-4290,2450 L-4398,2469 L-4542,2494 L-4672,2515 L-4840,2541 L-5074,2569 L-5241,2570 L-5395,2552 L-5455,2537 L-5523,2508 L-5572,2475 L-5627,2416 L-5669,2354 L-5708,2272 L-5735,2189 L-5763,2011 L-5838,1570 L-5850,1515 L-5880,1378 L-5911,1235 L-5934,1130 L-5967,973 L-5973,947 L-6012,765 L-6038,645 L-6082,442 L-6105,333 L-6144,139 L-6174,-15 L-6199,-157 L-6219,-285 L-6234,-454 L-6235,-510 L-6227,-620 L-6178,-862 L-6115,-1034 L-6018,-1248 L-5935,-1421 L-5904,-1495 L-5879,-1569 L-5861,-1655 L-5860,-1716 L-5868,-1766 L-5876,-1790 L-5918,-1859 L-5979,-1909 L-6014,-1924 L-6056,-1932 L-6107,-1932 L-6167,-1918 L-6238,-1879 L-6265,-1857 L-6336,-1770 L-6376,-1704 L-6408,-1643 L-6441,-1577 L-6506,-1455 L-6602,-1283 L-6659,-1187 L-6722,-1087 L-6808,-954 L-6866,-866 L-6968,-714 L-7018,-642 L-7112,-518 L-7217,-399 L-7324,-295 L-7498,-156 L-7629,-70 L-7836,25 L-8083,83 L-8204,100 L-8387,118 L-8509,127 L-8695,130 L-8820,124 L-8961,111 L-9181,77 L-9321,45 L-9478,4 L-9632,-43 L-9847,-118 L-10059,-200 L-10194,-256 L-10545,-435 L-10758,-581 L-10859,-660 L-10990,-776 L-11154,-950 L-11345,-1201 L-11485,-1446 L-11550,-1590 L-11600,-1706 L-11686,-1907 L-11770,-2107 L-11818,-2220 L-11880,-2359 L-11973,-2546 L-12092,-2765 L-12263,-2970 L-12332,-3020 L-12492,-3095 L-12583,-3118 L-12676,-3131 L-12906,-3133 L-13110,-3109 L-13190,-3093 L-13300,-3062 L-13480,-2987 L-13593,-2911 L-13621,-2886 L-13703,-2785 L-13743,-2710 L-13772,-2631 L-13791,-2542 L-13794,-2387 L-13776,-2285 L-13722,-2128 L-13674,-2029 L-13658,-2003 L-13594,-1907 L-13509,-1807 L-13446,-1742 L-13361,-1661 L-13261,-1574 L-13124,-1467 L-12957,-1341 L-12802,-1228 L-12676,-1138 L-12496,-1016 L-12257,-862 L-12126,-781 L-12005,-708 L-11798,-589 L-11656,-511 L-11468,-410 L-11291,-316 L-11141,-240 L-10973,-159 L-10770,-65 L-10627,-3 L-10392,90 L-10092,201 L-9957,248 L-9736,324 L-9599,371 L-9357,452 L-9201,505 L-8941,593 L-8713,669 L-8380,780 L-8240,827 L-8130,865 L-7706,1007"
    fill="none"
    stroke="#555555"
    stroke-width="350"
    stroke-linecap="butt"
    stroke-linejoin="round"
    opacity="0.85"
  />
  <!-- Sector 2: 161 points -->
  <path
    id="sector3"
    d="M-7706,1007 L-7495,1078 L-7320,1136 L-7181,1183 L-6885,1283 L-6453,1427 L-6182,1519 L-5782,1653 L-5651,1698 L-5478,1745 L-5321,1756 L-4957,1675 L-4737,1592 L-4528,1499 L-4315,1387 L-4122,1268 L-4003,1188 L-3952,1151 L-3704,958 L-3529,800 L-3438,714 L-3336,618 L-3189,480 L-3088,384 L-2956,253 L-2783,78 L-2645,-59 L-2550,-154 L-2427,-275 L-2402,-298 L-2283,-399 L-2221,-441 L-2147,-480 L-2081,-506 L-1955,-534 L-1886,-534 L-1823,-520 L-1757,-484 L-1719,-454 L-1647,-390 L-1608,-363 L-1569,-343 L-1484,-323 L-1419,-323 L-1371,-330 L-1282,-361 L-1178,-433 L-1122,-487 L-1074,-535 L-1003,-599 L-897,-678 L-753,-747 L-632,-776 L-569,-784 L-319,-788 L-88,-756 L21,-728 L131,-694 L329,-619 L510,-527 L570,-492 L730,-385 L831,-305 L958,-187 L1159,17 L1217,82 L1321,205 L1416,316 L1488,402 L1651,592 L1709,660 L1884,864 L1459,367"
    fill="none"
    stroke="#555555"
    stroke-width="350"
    stroke-linecap="butt"
    stroke-linejoin="round"
    opacity="0.85"
  />
  <!-- Sector 3: 73 points -->
</svg>
